<svg width="current" height="current" viewBox="0 0 24 24" fill="none" xmlns="http://www.w3.org/2000/svg">
<path d="M19.3212 10.1246L18.8074 16.2907C18.6562 18.1047 17.1398 19.5 15.3195 19.5H8.68053C6.86022 19.5 5.34379 18.1047 5.19262 16.2907L4.67878 10.1246C4.6059 9.25004 5.29604 8.5 6.1736 8.5H8H17.8264C18.704 8.5 19.3941 9.25004 19.3212 10.1246Z" stroke="#EF8300"/>
<path d="M10 4.5H14C14.8284 4.5 15.5 5.17157 15.5 6V8.5H8.5V6C8.5 5.17157 9.17157 4.5 10 4.5Z" stroke="#EF8300"/>
<path d="M10.3562 13.6939L9.34853 14.7015C8.8799 15.1701 8.8799 15.9299 9.34853 16.3986V16.3986C9.81716 16.8672 10.577 16.8672 11.0456 16.3986L12.0532 15.3909" stroke="#EF8300" stroke-width="0.7" stroke-linecap="square" stroke-linejoin="round"/>
<path d="M11.5937 12.4565L12.6013 11.4489C13.0699 10.9802 13.8297 10.9802 14.2984 11.4489V11.4489C14.767 11.9175 14.767 12.6773 14.2984 13.1459L13.2907 14.1536" stroke="#EF8300" stroke-width="0.7" stroke-linecap="square" stroke-linejoin="round"/>
<rect x="10.8711" y="14.6309" width="2.5" height="0.3" rx="0.15" transform="rotate(-45 10.8711 14.6309)" stroke="#EF8300" stroke-width="0.3"/>
</svg>
